<svg width="96" height="31" fill="none" xmlns="http://www.w3.org/2000/svg"><path d="m.003 6.55 19.612 8.197s.825.34.825 1.534v4.355L.876 12.469S0 12.224 0 10.784C0 9.343.003 6.55.003 6.55zM19.758 3.481c-.637-.773-1.302-1.029-1.366-1.052l-.012-.005C11.938-.546 9.875-.538 4.915 1.108c-1.992.66-3.182 1.314-3.892 1.859 0 0-1.01.745-1.01 1.55 0 .803-.088 1.22.189 1.336L4.343 7.59l.51.215.008-.24c0-.16.079-.283.15-.363.19-.194.493-.352.493-.352 5.846-2.775 13.664 1.673 13.664 1.673.822.348 1.273.306 1.273-1.32 0-1.626-.014-2.908-.683-3.72zM.683 23.708c.636.773 1.301 1.029 1.365 1.052l.012.005c6.442 2.97 8.505 2.962 13.465 1.316 1.993-.66 3.182-1.314 3.892-1.858 0 0 1.01-.746 1.01-1.55s.088-1.22-.189-1.337L16.097 19.6l-.51-.215-.007.24a.543.543 0 0 1-.152.363c-.19.195-.491.352-.491.352-5.847 2.775-13.664-1.673-13.664-1.673C.45 18.32 0 18.361 0 19.987c0 1.626.014 2.908.683 3.72z" fill="#F8AB00"/><path d="M28.701 12.068c-.162-.13-.227-.227-.08-.486l.583-1.005a.375.375 0 0 1 .55-.113c.665.502 1.394 1.005 2.447 1.005.844 0 1.475-.551 1.475-1.248 0-.826-.697-1.393-2.058-1.944-1.523-.616-3.046-1.588-3.046-3.5 0-1.443 1.07-3.112 3.646-3.112 1.653 0 2.917.843 3.241 1.086.162.097.21.372.097.535l-.616.924c-.13.193-.372.324-.567.193-.697-.437-1.361-.89-2.253-.89-.923 0-1.426.518-1.426 1.134 0 .761.6 1.28 1.912 1.814 1.573.633 3.388 1.573 3.388 3.663 0 1.669-1.443 3.209-3.728 3.209-2.041 0-3.095-.86-3.565-1.265zM36.833 2.163c0-.178.179-.356.357-.356h1.312a.37.37 0 0 1 .357.356v3.97c.373-.324 1.02-.632 1.912-.632 2.382 0 3.03 1.653 3.03 3.533v3.76a.37.37 0 0 1-.356.356h-1.313a.36.36 0 0 1-.356-.357V9.018c0-1.038-.47-1.669-1.362-1.669-.875 0-1.36.55-1.555 1.312v4.133c0 .21-.097.356-.389.356h-1.28a.37.37 0 0 1-.357-.357V2.163zM49.828 8.467c-.032-.73-.616-1.297-1.442-1.297-.907 0-1.49.552-1.589 1.297h3.031zM48.435 5.5c1.944 0 3.435 1.443 3.435 3.468 0 .114-.016.373-.033.486a.38.38 0 0 1-.356.34h-4.796c.016.924.777 1.734 1.863 1.734a2.48 2.48 0 0 0 1.604-.55c.178-.146.373-.163.486 0l.632.842c.13.146.146.324-.032.486a4.227 4.227 0 0 1-2.787 1.02c-2.236 0-3.792-1.781-3.792-3.92 0-2.107 1.556-3.906 3.776-3.906zM54.75 11.06s.616.42 1.556.42c1.232 0 1.864-1.004 1.864-2.057s-.6-2.074-1.766-2.074c-.973 0-1.491.616-1.653 1.037v2.673zm1.8 2.268a5.56 5.56 0 0 1-1.8-.308v3.63a.384.384 0 0 1-.356.357h-1.313a.371.371 0 0 1-.356-.357V6.02a.36.36 0 0 1 .356-.356h.6c.179 0 .291.145.357.356l.194.6s.86-1.118 2.447-1.118c2.042 0 3.582 1.652 3.582 3.92 0 2.188-1.476 3.906-3.712 3.906zM61.23 2.163c0-.178.178-.356.356-.356h1.312a.37.37 0 0 1 .357.356v3.97c.372-.324 1.02-.632 1.912-.632 2.382 0 3.03 1.653 3.03 3.533v3.76a.37.37 0 0 1-.356.356H66.53a.36.36 0 0 1-.357-.357V9.018c0-1.038-.47-1.669-1.361-1.669-.876 0-1.362.55-1.556 1.312v4.133c0 .21-.097.356-.389.356h-1.28a.37.37 0 0 1-.357-.357V2.163zM74.223 8.467c-.033-.73-.617-1.297-1.442-1.297-.909 0-1.492.552-1.589 1.297h3.03zM72.829 5.5c1.945 0 3.435 1.443 3.435 3.468 0 .114-.016.373-.032.486a.38.38 0 0 1-.356.34h-4.797c.016.924.777 1.734 1.863 1.734.746 0 1.265-.275 1.604-.55.178-.146.373-.163.486 0l.633.842c.13.146.146.324-.033.486a4.228 4.228 0 0 1-2.787 1.02c-2.236 0-3.792-1.781-3.792-3.92 0-2.107 1.556-3.906 3.776-3.906zM77.121 6.02a.36.36 0 0 1 .357-.356h.599c.178 0 .26.08.324.243l.276.729c.26-.373.956-1.134 2.106-1.134.891 0 1.62.243 1.41.729l-.486 1.102c-.081.178-.26.243-.438.162a1.49 1.49 0 0 0-.696-.146c-.81 0-1.297.518-1.426.778v4.666c0 .276-.178.357-.422.357h-1.247a.37.37 0 0 1-.357-.357V6.02zM87.587 7.77s-.616-.421-1.556-.421c-1.231 0-1.863 1.004-1.863 2.058 0 1.053.6 2.074 1.765 2.074.974 0 1.492-.616 1.654-1.037V7.77zM85.79 5.501c.745 0 1.458.179 1.798.308V2.163c0-.178.178-.356.357-.356h1.312c.194 0 .357.178.357.356v10.63a.36.36 0 0 1-.357.357h-.6c-.178 0-.291-.146-.356-.357l-.194-.583s-.86 1.118-2.448 1.118c-2.04 0-3.58-1.653-3.58-3.921 0-2.188 1.474-3.906 3.71-3.906zM90.67 12.647c-.098-.064-.179-.243-.098-.405l.486-.972c.08-.178.259-.243.437-.13.34.211.875.487 1.653.487.568 0 .827-.211.827-.535 0-.34-.421-.648-1.41-1.037-1.442-.551-2.091-1.232-2.091-2.366 0-1.134.86-2.187 2.69-2.187 1.103 0 1.816.291 2.22.55.163.13.26.325.163.52l-.421.858a.374.374 0 0 1-.47.146c-.357-.162-.875-.373-1.491-.373-.503 0-.714.243-.714.486 0 .34.374.519 1.07.81C94.963 9.083 96 9.601 96 11.092c0 1.183-1.004 2.236-2.884 2.236-1.248 0-2.026-.388-2.447-.68zM28.67 15.979c0-.163.129-.308.307-.308h6.595c.178 0 .308.145.308.308v1.328c0 .162-.13.308-.308.308h-4.796v3.046h4.002a.32.32 0 0 1 .309.308v1.33a.32.32 0 0 1-.309.307h-4.002v4.1a.319.319 0 0 1-.308.308h-1.491a.308.308 0 0 1-.308-.308V15.979zM36.12 19.884a.36.36 0 0 1 .357-.357h.6c.178 0 .259.081.324.243l.275.73c.26-.373.956-1.135 2.107-1.135.891 0 1.62.243 1.41.73l-.487 1.101c-.08.179-.259.243-.437.162a1.49 1.49 0 0 0-.697-.146c-.81 0-1.296.519-1.426.778v4.667c0 .275-.178.356-.421.356h-1.248a.37.37 0 0 1-.356-.356v-6.773zM41.888 19.884a.36.36 0 0 1 .357-.357h1.312a.36.36 0 0 1 .357.357v6.773a.37.37 0 0 1-.357.356h-1.312a.37.37 0 0 1-.357-.356v-6.773zm-.166-2.436a1.14 1.14 0 0 1 1.156-1.155c.657 0 1.169.512 1.169 1.155s-.512 1.17-1.17 1.17a1.151 1.151 0 0 1-1.155-1.17zM49.872 22.33c-.032-.728-.616-1.296-1.442-1.296-.907 0-1.49.551-1.588 1.297h3.03zm-1.394-2.965c1.945 0 3.435 1.443 3.435 3.468a4.9 4.9 0 0 1-.032.486.38.38 0 0 1-.356.34h-4.797c.017.924.778 1.734 1.864 1.734.745 0 1.264-.275 1.604-.55.178-.146.373-.163.486 0l.632.842c.13.146.146.324-.032.486a4.227 4.227 0 0 1-2.787 1.02c-2.236 0-3.793-1.782-3.793-3.92 0-2.107 1.557-3.906 3.776-3.906zM52.77 19.884a.36.36 0 0 1 .357-.357h.616c.178 0 .259.081.307.227l.276.697c.275-.308.972-1.086 2.414-1.086 2.383 0 2.998 1.605 2.998 3.42v3.872a.37.37 0 0 1-.356.356h-1.313a.36.36 0 0 1-.356-.356v-3.873c0-.972-.389-1.572-1.296-1.572-.973 0-1.443.649-1.62 1.167v4.278c0 .275-.114.356-.47.356h-1.2a.37.37 0 0 1-.357-.356v-6.773zM66.12 21.634s-.617-.421-1.557-.421c-1.231 0-1.863 1.004-1.863 2.057 0 1.054.6 2.075 1.766 2.075.973 0 1.491-.616 1.653-1.037v-2.674zm-1.8-2.269c.746 0 1.46.179 1.8.308v-3.646c0-.178.178-.356.356-.356h1.312c.194 0 .357.178.357.356v10.63a.36.36 0 0 1-.357.357h-.6c-.177 0-.291-.146-.356-.357l-.194-.583s-.859 1.118-2.448 1.118c-2.04 0-3.58-1.653-3.58-3.922 0-2.187 1.474-3.905 3.71-3.905zM69.406 16.027c0-.178.179-.356.357-.356h1.312c.178 0 .357.178.357.356v10.63a.371.371 0 0 1-.357.357h-1.312a.37.37 0 0 1-.357-.357v-10.63zM72.321 20.013c-.098-.259.033-.486.324-.486H74.2c.162 0 .276.081.309.21l1.345 4.473h.032l1.702-4.472c.113-.195.243-.21.47-.21h1.377c.291 0 .437.242.323.485l-4.407 10.63c-.048.114-.178.227-.324.227h-1.556c-.291 0-.437-.243-.324-.502l1.508-3.792-2.334-6.563z" fill="#13243A"/></svg>